<svg version="1.1" id="Layer_1" xmlns="http://www.w3.org/2000/svg" xmlns:xlink="http://www.w3.org/1999/xlink" x="0px" y="0px"
	 width="100%" viewBox="0 0 1250 420" enable-background="new 0 0 1250 420" xml:space="preserve">
<path fill="#00000000" opacity="1.000000" stroke="none"
	d="
M867.000000,421.000000
	C578.000061,421.000000 289.500061,421.000000 1.000077,421.000000
	C1.000052,281.000061 1.000052,141.000107 1.000026,1.000115
	C417.666595,1.000077 834.333191,1.000077 1250.999756,1.000038
	C1250.999878,140.999878 1250.999878,280.999756 1251.000000,420.999817
	C1123.166626,421.000000 995.333313,421.000000 867.000000,421.000000
M910.145447,326.683594
	C906.612122,337.650818 903.078735,348.618073 899.515137,359.679382
	C914.888428,359.679382 929.629944,359.679382 944.879150,359.679382
	C944.879150,343.125214 944.879150,326.893829 944.879150,310.007568
	C948.015930,310.007568 950.655518,310.140869 953.278076,309.986298
	C972.686279,308.842346 992.211060,308.921539 1011.231201,303.909424
	C1043.890991,295.302979 1061.479004,274.434143 1062.201050,242.977661
	C1062.596436,225.759644 1059.708984,209.315872 1047.929321,195.921890
	C1033.185425,179.157455 1014.518311,169.925064 992.041260,169.083725
	C969.078247,168.224167 946.110413,167.459015 923.139038,166.872025
	C912.221069,166.593033 901.290039,166.824097 889.995667,166.824097
	C889.995667,169.234604 890.049194,172.034790 889.986145,174.832367
	C889.749817,185.311127 889.788147,195.809875 889.091492,206.259003
	C888.707764,212.014252 884.880615,214.092499 879.209290,212.494232
	C876.992920,211.869629 874.653076,211.096680 872.831055,209.761475
	C865.200928,204.169815 857.460083,198.673843 850.276001,192.538422
	C819.147461,165.954056 784.009644,156.956467 744.337341,168.186981
	C722.635193,174.330490 703.210754,184.595642 689.053101,202.791641
	C671.402039,225.477493 666.994080,251.732300 671.253479,279.295807
	C677.448792,319.386871 700.945618,345.391052 739.280579,358.097931
	C759.343750,364.748291 779.732544,363.724823 800.471130,361.630981
	C811.332703,360.534363 815.099731,355.735748 818.092651,346.126038
	C827.856628,314.775360 838.599548,283.726868 849.215881,252.647568
	C850.623962,248.525421 852.529053,243.385101 855.832703,241.312897
	C867.467224,234.015198 879.561584,227.320755 891.978088,221.447128
	C899.723816,217.782990 904.984558,219.809464 909.199463,227.447113
	C916.097229,239.946365 922.213562,252.880905 928.461243,265.728271
	C929.057129,266.953522 928.522095,268.946136 928.053467,270.438538
	C922.238464,288.957947 916.338379,307.450623 910.145447,326.683594
M658.992004,177.528564
	C658.992004,173.902603 658.992004,170.276642 658.992004,166.316376
	C641.181396,167.178482 623.852783,168.017273 606.446777,168.859802
	C605.579285,192.368073 604.740417,215.101700 603.906677,237.694794
	C579.957642,237.694794 556.547729,237.694794 532.751587,237.694794
	C532.751587,213.970657 532.751587,190.547653 532.751587,167.090210
	C514.442810,167.090210 496.524994,167.090210 478.383301,167.090210
	C478.383301,231.442398 478.383301,295.513458 478.383301,359.665894
	C496.687653,359.665894 514.737427,359.665894 533.135010,359.665894
	C533.135010,334.405823 533.135010,309.480530 533.135010,284.371826
	C556.906860,284.371826 580.327698,284.371826 604.335327,284.371826
	C604.335327,309.655182 604.335327,334.712708 604.335327,359.714294
	C622.845215,359.714294 640.766541,359.714294 658.990723,359.714294
	C658.990723,299.122009 658.990723,238.820404 658.992004,177.528564
M374.054596,319.604980
	C365.258026,317.183594 356.446167,314.815918 347.669952,312.322906
	C341.291656,310.511078 334.936829,308.607544 328.619141,306.595398
	C325.868042,305.719177 324.138062,306.472076 323.019867,309.061615
	C319.011292,318.344727 314.945343,327.603180 310.967926,336.899536
	C309.240845,340.936249 310.664642,344.263031 314.214844,346.271820
	C318.666870,348.791016 323.250702,351.307281 328.084564,352.883667
	C355.400085,361.791290 383.473907,364.000580 411.889832,360.745636
	C432.782104,358.352478 450.736084,350.330658 463.530975,332.380493
	C480.886261,308.032349 477.329620,281.602478 453.557800,263.551636
	C442.330139,255.026093 429.169495,251.034164 415.948334,246.962708
	C402.013062,242.671356 388.059113,238.284714 374.520630,232.913132
	C364.777344,229.047363 364.052399,218.732788 373.007080,213.201599
	C378.057922,210.081757 384.223328,207.968155 390.124969,207.175598
	C406.863800,204.927673 422.845581,208.236588 437.943207,215.869247
	C447.240051,220.569305 448.490723,220.164200 453.035675,210.605377
	C455.951111,204.473648 458.759277,198.260178 461.104614,191.895111
	C464.900574,181.593185 463.356262,178.193436 453.142731,174.368500
	C432.644226,166.691925 411.430847,163.218399 389.535065,164.463226
	C367.317352,165.726379 346.652435,171.281387 329.162872,186.021973
	C301.385712,209.433197 305.952362,257.603241 340.343536,270.743835
	C352.876831,275.532684 365.710907,279.528809 378.352631,284.041077
	C390.048645,288.215851 401.948547,291.983765 413.233673,297.091003
	C421.513977,300.838409 421.460083,311.430817 413.782776,316.494293
	C411.346436,318.101135 408.465759,319.254700 405.626373,319.990540
	C395.400238,322.640747 385.135315,321.258545 374.054596,319.604980
M156.215942,323.763153
	C144.896774,328.042999 133.577606,332.322845 121.835419,336.762634
	C124.804680,349.026428 128.050354,360.620544 133.850128,371.360199
	C136.152191,375.622986 139.460541,375.591125 143.598953,374.051880
	C179.958542,360.528107 216.483490,347.439423 252.705017,333.557922
	C270.815765,326.617188 288.391968,318.283081 306.222534,310.608490
	C309.726257,309.100372 310.859497,306.971191 309.333008,303.157593
	C307.058105,297.474091 305.418274,291.538239 303.197906,285.830475
	C301.363922,281.116028 299.080231,276.576508 296.927826,271.808868
	C249.701660,289.216858 203.307602,306.318146 156.215942,323.763153
M64.756027,194.167572
	C94.307030,183.254303 123.915672,172.493927 153.391785,161.381989
	C179.484589,151.545486 205.401535,141.243042 231.469162,131.338531
	C235.665482,129.744125 236.869965,127.219826 235.622635,123.335968
	C232.839325,114.669449 230.197662,105.934250 226.876221,97.471169
	C224.287384,90.874802 223.829117,90.925163 217.296478,93.301384
	C171.615891,109.917549 125.919952,126.492805 80.314438,143.313034
	C71.312035,146.633286 62.639202,150.869019 53.902538,154.874832
	C51.208805,156.109924 49.200024,158.223877 50.354607,161.662857
	C53.842384,172.051361 57.315498,182.445786 60.980427,192.771866
	C61.274364,193.600037 62.993221,193.922485 64.756027,194.167572
M130.708328,273.150513
	C178.984970,255.706802 227.261612,238.263092 276.415039,220.502579
	C271.833496,209.298096 267.672333,198.854340 263.280151,188.508682
	C261.460571,184.222702 258.532562,183.059357 253.689758,184.810150
	C225.615570,194.959625 197.382034,204.667419 169.282883,214.748947
	C143.534988,223.986893 117.917343,233.587784 92.172577,242.834610
	C87.410629,244.544968 85.117767,247.012497 86.845207,252.072327
	C90.418495,262.538788 94.046822,272.986481 97.893204,284.139832
	C109.264053,280.343018 119.616356,276.886292 130.708328,273.150513
M1175.364380,185.848450
	C1175.477661,184.688995 1175.743530,183.521149 1175.680298,182.371429
	C1175.178833,173.262238 1175.112427,164.089188 1173.892456,155.073730
	C1173.100708,149.221497 1169.238281,148.228287 1165.207642,152.552551
	C1161.728149,156.285446 1158.989136,160.730011 1156.084595,164.970825
	C1153.810181,168.291702 1151.783691,171.782318 1149.312012,175.732956
	C1146.741455,171.581909 1144.818237,168.105209 1142.536377,164.882309
	C1139.472656,160.555145 1136.480835,156.086685 1132.817261,152.298599
	C1128.695923,148.037201 1125.114746,149.152878 1123.181885,154.690796
	C1122.691528,156.095642 1122.113647,157.571457 1122.092651,159.022095
	C1121.953369,168.650360 1121.760742,178.285751 1122.013062,187.907608
	C1122.104858,191.403702 1122.373291,195.915298 1127.487061,195.915115
	C1132.677124,195.914917 1133.033081,191.350616 1133.634399,187.657883
	C1134.084473,184.894409 1133.777588,182.010864 1133.854248,179.182037
	C1133.891357,177.805847 1134.034790,176.432526 1134.192017,174.166321
	C1136.150146,176.783005 1137.531250,178.596924 1138.877197,180.436493
	C1140.252319,182.315872 1141.535645,184.264664 1142.958740,186.106110
	C1148.507935,193.286423 1152.286621,193.052124 1156.655640,185.216736
	C1158.322510,182.227478 1159.799316,179.132233 1161.362671,176.085251
	C1162.645386,179.674774 1162.576782,183.109711 1163.081299,186.458344
	C1163.682983,190.451859 1163.760254,195.633163 1169.225830,195.838669
	C1175.206421,196.063538 1174.422974,190.585388 1175.364380,185.848450
M1115.065063,160.577408
	C1118.263794,155.096054 1117.229126,151.712784 1111.108887,151.173553
	C1102.236816,150.391846 1093.248657,150.443848 1084.339600,150.827194
	C1081.207520,150.961975 1075.705811,152.861557 1075.543091,154.404663
	C1075.072021,158.866241 1079.849365,160.030273 1083.382080,161.178864
	C1088.507812,162.845459 1090.853516,166.228424 1091.198608,171.435303
	C1091.625610,177.879150 1092.053833,184.331161 1092.806274,190.741531
	C1093.150757,193.676437 1094.781616,196.719604 1098.208618,195.793213
	C1100.229980,195.246780 1102.722534,192.766541 1103.154419,190.758392
	C1104.153198,186.114471 1104.143921,181.233017 1104.328491,176.439606
	C1104.606567,169.217087 1105.087158,162.240829 1115.065063,160.577408
M891.537292,258.306610
	C894.687622,256.526215 898.601013,255.392807 900.796631,252.803024
	C903.592773,249.505051 901.899292,245.419998 899.061707,242.520004
	C895.824890,239.212143 891.782837,237.835770 887.338928,240.105484
	C883.225342,242.206451 882.345215,246.009369 882.783081,250.240372
	C883.275085,254.993393 885.874817,257.745422 891.537292,258.306610
z"/>
<path fill="#020202" opacity="1.000000" stroke="none"
	d="
M910.302795,326.316895
	C916.338379,307.450623 922.238464,288.957947 928.053467,270.438538
	C928.522095,268.946136 929.057129,266.953522 928.461243,265.728271
	C922.213562,252.880905 916.097229,239.946365 909.199463,227.447113
	C904.984558,219.809464 899.723816,217.782990 891.978088,221.447128
	C879.561584,227.320755 867.467224,234.015198 855.832703,241.312897
	C852.529053,243.385101 850.623962,248.525421 849.215881,252.647568
	C838.599548,283.726868 827.856628,314.775360 818.092651,346.126038
	C815.099731,355.735748 811.332703,360.534363 800.471130,361.630981
	C779.732544,363.724823 759.343750,364.748291 739.280579,358.097931
	C700.945618,345.391052 677.448792,319.386871 671.253479,279.295807
	C666.994080,251.732300 671.402039,225.477493 689.053101,202.791641
	C703.210754,184.595642 722.635193,174.330490 744.337341,168.186981
	C784.009644,156.956467 819.147461,165.954056 850.276001,192.538422
	C857.460083,198.673843 865.200928,204.169815 872.831055,209.761475
	C874.653076,211.096680 876.992920,211.869629 879.209290,212.494232
	C884.880615,214.092499 888.707764,212.014252 889.091492,206.259003
	C889.788147,195.809875 889.749817,185.311127 889.986145,174.832367
	C890.049194,172.034790 889.995667,169.234604 889.995667,166.824097
	C901.290039,166.824097 912.221069,166.593033 923.139038,166.872025
	C946.110413,167.459015 969.078247,168.224167 992.041260,169.083725
	C1014.518311,169.925064 1033.185425,179.157455 1047.929321,195.921890
	C1059.708984,209.315872 1062.596436,225.759644 1062.201050,242.977661
	C1061.479004,274.434143 1043.890991,295.302979 1011.231201,303.909424
	C992.211060,308.921539 972.686279,308.842346 953.278076,309.986298
	C950.655518,310.140869 948.015930,310.007568 944.879150,310.007568
	C944.879150,326.893829 944.879150,343.125214 944.879150,359.679382
	C929.629944,359.679382 914.888428,359.679382 899.515137,359.679382
	C903.078735,348.618073 906.612122,337.650818 910.302795,326.316895
M790.967224,315.706299
	C792.679626,315.079224 794.444763,314.566528 796.095947,313.806519
	C807.118896,308.733124 816.875977,301.966187 817.491028,288.668182
	C818.250366,272.248688 817.925293,255.762283 817.564941,239.315842
	C817.414490,232.447815 814.158325,226.446793 808.725403,222.075592
	C794.434021,210.577087 778.143860,206.782913 760.589417,211.918732
	C739.901306,217.971359 728.331238,233.076981 724.422363,253.637314
	C720.650574,273.476349 726.475830,291.098633 741.346375,304.794006
	C755.231628,317.582001 772.037598,320.390472 790.967224,315.706299
M971.397034,267.187592
	C976.651733,266.448761 982.017090,266.153595 987.137817,264.877289
	C997.332336,262.336365 1004.654480,256.744843 1006.752625,245.542007
	C1009.642395,230.112778 1003.882263,217.958740 990.253540,213.395004
	C975.565125,208.476410 960.311279,208.291565 945.085571,209.052444
	C945.085571,228.660889 945.085571,247.993240 945.085571,267.250824
	C953.800720,267.250824 962.111755,267.250824 971.397034,267.187592
z"/>
<path fill="#010101" opacity="1.000000" stroke="none"
	d="
M658.991333,178.023682
	C658.990723,238.820404 658.990723,299.122009 658.990723,359.714294
	C640.766541,359.714294 622.845215,359.714294 604.335327,359.714294
	C604.335327,334.712708 604.335327,309.655182 604.335327,284.371826
	C580.327698,284.371826 556.906860,284.371826 533.135010,284.371826
	C533.135010,309.480530 533.135010,334.405823 533.135010,359.665894
	C514.737427,359.665894 496.687653,359.665894 478.383301,359.665894
	C478.383301,295.513458 478.383301,231.442398 478.383301,167.090210
	C496.524994,167.090210 514.442810,167.090210 532.751587,167.090210
	C532.751587,190.547653 532.751587,213.970657 532.751587,237.694794
	C556.547729,237.694794 579.957642,237.694794 603.906677,237.694794
	C604.740417,215.101700 605.579285,192.368073 606.446777,168.859802
	C623.852783,168.017273 641.181396,167.178482 658.992004,166.316376
	C658.992004,170.276642 658.992004,173.902603 658.991333,178.023682
z"/>
<path fill="#020202" opacity="1.000000" stroke="none"
	d="
M374.476257,319.706238
	C385.135315,321.258545 395.400238,322.640747 405.626373,319.990540
	C408.465759,319.254700 411.346436,318.101135 413.782776,316.494293
	C421.460083,311.430817 421.513977,300.838409 413.233673,297.091003
	C401.948547,291.983765 390.048645,288.215851 378.352631,284.041077
	C365.710907,279.528809 352.876831,275.532684 340.343536,270.743835
	C305.952362,257.603241 301.385712,209.433197 329.162872,186.021973
	C346.652435,171.281387 367.317352,165.726379 389.535065,164.463226
	C411.430847,163.218399 432.644226,166.691925 453.142731,174.368500
	C463.356262,178.193436 464.900574,181.593185 461.104614,191.895111
	C458.759277,198.260178 455.951111,204.473648 453.035675,210.605377
	C448.490723,220.164200 447.240051,220.569305 437.943207,215.869247
	C422.845581,208.236588 406.863800,204.927673 390.124969,207.175598
	C384.223328,207.968155 378.057922,210.081757 373.007080,213.201599
	C364.052399,218.732788 364.777344,229.047363 374.520630,232.913132
	C388.059113,238.284714 402.013062,242.671356 415.948334,246.962708
	C429.169495,251.034164 442.330139,255.026093 453.557800,263.551636
	C477.329620,281.602478 480.886261,308.032349 463.530975,332.380493
	C450.736084,350.330658 432.782104,358.352478 411.889832,360.745636
	C383.473907,364.000580 355.400085,361.791290 328.084564,352.883667
	C323.250702,351.307281 318.666870,348.791016 314.214844,346.271820
	C310.664642,344.263031 309.240845,340.936249 310.967926,336.899536
	C314.945343,327.603180 319.011292,318.344727 323.019867,309.061615
	C324.138062,306.472076 325.868042,305.719177 328.619141,306.595398
	C334.936829,308.607544 341.291656,310.511078 347.669952,312.322906
	C356.446167,314.815918 365.258026,317.183594 374.476257,319.706238
z"/>
<path fill="#030303" opacity="1.000000" stroke="none"
	d="
M156.564743,323.591309
	C203.307602,306.318146 249.701660,289.216858 296.927826,271.808868
	C299.080231,276.576508 301.363922,281.116028 303.197906,285.830475
	C305.418274,291.538239 307.058105,297.474091 309.333008,303.157593
	C310.859497,306.971191 309.726257,309.100372 306.222534,310.608490
	C288.391968,318.283081 270.815765,326.617188 252.705017,333.557922
	C216.483490,347.439423 179.958542,360.528107 143.598953,374.051880
	C139.460541,375.591125 136.152191,375.622986 133.850128,371.360199
	C128.050354,360.620544 124.804680,349.026428 121.835419,336.762634
	C133.577606,332.322845 144.896774,328.042999 156.564743,323.591309
z"/>
<path fill="#030303" opacity="1.000000" stroke="none"
	d="
M64.402969,194.323761
	C62.993221,193.922485 61.274364,193.600037 60.980427,192.771866
	C57.315498,182.445786 53.842384,172.051361 50.354607,161.662857
	C49.200024,158.223877 51.208805,156.109924 53.902538,154.874832
	C62.639202,150.869019 71.312035,146.633286 80.314438,143.313034
	C125.919952,126.492805 171.615891,109.917549 217.296478,93.301384
	C223.829117,90.925163 224.287384,90.874802 226.876221,97.471169
	C230.197662,105.934250 232.839325,114.669449 235.622635,123.335968
	C236.869965,127.219826 235.665482,129.744125 231.469162,131.338531
	C205.401535,141.243042 179.484589,151.545486 153.391785,161.381989
	C123.915672,172.493927 94.307030,183.254303 64.402969,194.323761
z"/>
<path fill="#030303" opacity="1.000000" stroke="none"
	d="
M130.338501,273.290039
	C119.616356,276.886292 109.264053,280.343018 97.893204,284.139832
	C94.046822,272.986481 90.418495,262.538788 86.845207,252.072327
	C85.117767,247.012497 87.410629,244.544968 92.172577,242.834610
	C117.917343,233.587784 143.534988,223.986893 169.282883,214.748947
	C197.382034,204.667419 225.615570,194.959625 253.689758,184.810150
	C258.532562,183.059357 261.460571,184.222702 263.280151,188.508682
	C267.672333,198.854340 271.833496,209.298096 276.415039,220.502579
	C227.261612,238.263092 178.984970,255.706802 130.338501,273.290039
z"/>
<path fill="#090909" opacity="1.000000" stroke="none"
	d="
M1175.298950,186.282288
	C1174.422974,190.585388 1175.206421,196.063538 1169.225830,195.838669
	C1163.760254,195.633163 1163.682983,190.451859 1163.081299,186.458344
	C1162.576782,183.109711 1162.645386,179.674774 1161.362671,176.085251
	C1159.799316,179.132233 1158.322510,182.227478 1156.655640,185.216736
	C1152.286621,193.052124 1148.507935,193.286423 1142.958740,186.106110
	C1141.535645,184.264664 1140.252319,182.315872 1138.877197,180.436493
	C1137.531250,178.596924 1136.150146,176.783005 1134.192017,174.166321
	C1134.034790,176.432526 1133.891357,177.805847 1133.854248,179.182037
	C1133.777588,182.010864 1134.084473,184.894409 1133.634399,187.657883
	C1133.033081,191.350616 1132.677124,195.914917 1127.487061,195.915115
	C1122.373291,195.915298 1122.104858,191.403702 1122.013062,187.907608
	C1121.760742,178.285751 1121.953369,168.650360 1122.092651,159.022095
	C1122.113647,157.571457 1122.691528,156.095642 1123.181885,154.690796
	C1125.114746,149.152878 1128.695923,148.037201 1132.817261,152.298599
	C1136.480835,156.086685 1139.472656,160.555145 1142.536377,164.882309
	C1144.818237,168.105209 1146.741455,171.581909 1149.312012,175.732956
	C1151.783691,171.782318 1153.810181,168.291702 1156.084595,164.970825
	C1158.989136,160.730011 1161.728149,156.285446 1165.207642,152.552551
	C1169.238281,148.228287 1173.100708,149.221497 1173.892456,155.073730
	C1175.112427,164.089188 1175.178833,173.262238 1175.680298,182.371429
	C1175.743530,183.521149 1175.477661,184.688995 1175.298950,186.282288
z"/>
<path fill="#070707" opacity="1.000000" stroke="none"
	d="
M1114.760254,160.812378
	C1105.087158,162.240829 1104.606567,169.217087 1104.328491,176.439606
	C1104.143921,181.233017 1104.153198,186.114471 1103.154419,190.758392
	C1102.722534,192.766541 1100.229980,195.246780 1098.208618,195.793213
	C1094.781616,196.719604 1093.150757,193.676437 1092.806274,190.741531
	C1092.053833,184.331161 1091.625610,177.879150 1091.198608,171.435303
	C1090.853516,166.228424 1088.507812,162.845459 1083.382080,161.178864
	C1079.849365,160.030273 1075.072021,158.866241 1075.543091,154.404663
	C1075.705811,152.861557 1081.207520,150.961975 1084.339600,150.827194
	C1093.248657,150.443848 1102.236816,150.391846 1111.108887,151.173553
	C1117.229126,151.712784 1118.263794,155.096054 1114.760254,160.812378
z"/>
<path fill="#090909" opacity="1.000000" stroke="none"
	d="
M891.121826,258.276367
	C885.874817,257.745422 883.275085,254.993393 882.783081,250.240372
	C882.345215,246.009369 883.225342,242.206451 887.338928,240.105484
	C891.782837,237.835770 895.824890,239.212143 899.061707,242.520004
	C901.899292,245.419998 903.592773,249.505051 900.796631,252.803024
	C898.601013,255.392807 894.687622,256.526215 891.121826,258.276367
z"/>
<path fill="#FDFDFD" opacity="1.000000" stroke="none"
	d="
M790.575439,315.817566
	C772.037598,320.390472 755.231628,317.582001 741.346375,304.794006
	C726.475830,291.098633 720.650574,273.476349 724.422363,253.637314
	C728.331238,233.076981 739.901306,217.971359 760.589417,211.918732
	C778.143860,206.782913 794.434021,210.577087 808.725403,222.075592
	C814.158325,226.446793 817.414490,232.447815 817.564941,239.315842
	C817.925293,255.762283 818.250366,272.248688 817.491028,288.668182
	C816.875977,301.966187 807.118896,308.733124 796.095947,313.806519
	C794.444763,314.566528 792.679626,315.079224 790.575439,315.817566
z"/>
<path fill="#FDFDFD" opacity="1.000000" stroke="none"
	d="
M970.909912,267.219208
	C962.111755,267.250824 953.800720,267.250824 945.085571,267.250824
	C945.085571,247.993240 945.085571,228.660889 945.085571,209.052444
	C960.311279,208.291565 975.565125,208.476410 990.253540,213.395004
	C1003.882263,217.958740 1009.642395,230.112778 1006.752625,245.542007
	C1004.654480,256.744843 997.332336,262.336365 987.137817,264.877289
	C982.017090,266.153595 976.651733,266.448761 970.909912,267.219208
z"/>
</svg>
